<?xml version="1.0" encoding="UTF-8"?>
<svg width="16px" height="16px" viewBox="0 0 16 16" version="1.1" xmlns="http://www.w3.org/2000/svg" xmlns:xlink="http://www.w3.org/1999/xlink">
    <title>下拉-nor</title>
    <g id="下拉-nor" stroke="none" stroke-width="1" fill="none" fill-rule="evenodd">
        <path d="M12,6.46170852 L12,7.77397195 C12,7.99535808 11.9082596,8.20684629 11.7466092,8.35811092 L8.55813953,11.341728 L8.55813953,11.341728 C8.27557524,11.6102134 7.83207826,11.6325872 7.52269185,11.4088493 L7.44186047,11.341728 L4.25339076,8.35811092 C4.09174043,8.20684629 4,7.99535808 4,7.77397195 L4,6.46170852 C4,6.35125157 4.08954305,6.26170852 4.2,6.26170852 C4.25081876,6.26170852 4.29973178,6.28105383 4.33680255,6.3158145 L8,9.75073773 L8,9.75073773 L11.6631975,6.3158145 C11.7437725,6.24026054 11.8703401,6.24433093 11.945894,6.32490597 C11.9806547,6.36197673 12,6.41088976 12,6.46170852 Z" id="路径" fill="#8B8FA6" fill-rule="nonzero"></path>
        <rect id="透明底块" x="0" y="0" width="16" height="16"></rect>
    </g>
</svg>