<?xml version="1.0" encoding="UTF-8"?>
<svg width="20px" height="20px" viewBox="0 0 20 20" version="1.1" xmlns="http://www.w3.org/2000/svg" xmlns:xlink="http://www.w3.org/1999/xlink">
    <title>选配项-hov</title>
    <g id="选配项-hov" stroke="none" stroke-width="1" fill="none" fill-rule="evenodd">
        <path d="M15.1849003,3.25 L4.92539053,3.25 C4.54566088,3.25 4.18651975,3.42261215 3.94930452,3.71913119 L3.8699478,3.83006855 C3.53170359,4.36151132 3.6413828,5.07357487 4.14452172,5.47608601 L7.75,8.36 L7.75,16 C7.75,16.575867 8.37211163,16.9368924 8.8721042,16.6511824 L12.3721042,14.6511824 L12.455434,14.5959026 C12.6395857,14.4552009 12.75,14.2354998 12.75,14 L12.75,8.336 L16.0153551,5.43426165 C16.2822156,5.19705236 16.4349003,4.85704727 16.4349003,4.5 C16.4349003,3.80964406 15.8752563,3.25 15.1849003,3.25 Z M14.526,4.75 L11.5017271,7.43944301 L11.4274847,7.51550738 C11.3136186,7.65005364 11.25,7.82147637 11.25,8 L11.25,13.563 L9.25,14.706 L9.25,8 L9.24150468,7.88739202 C9.21341246,7.70236608 9.11678081,7.53295601 8.96852129,7.41434839 L5.638,4.75 L14.526,4.75 Z" id="路径" fill="#415FFF" fill-rule="nonzero"></path>
    </g>
</svg>