<?xml version="1.0" encoding="UTF-8"?>
<svg width="20px" height="20px" viewBox="0 0 20 20" version="1.1" xmlns="http://www.w3.org/2000/svg" xmlns:xlink="http://www.w3.org/1999/xlink">
    <title>关闭</title>
    <g id="策划评审后-new" stroke="none" stroke-width="1" fill="none" fill-rule="evenodd">
        <g id="导入数据-大量数据-1920" transform="translate(-1312.000000, -114.000000)">
            <g id="关闭" transform="translate(1312.000000, 114.000000)">
                <rect id="矩形" x="0" y="0" width="20" height="20"></rect>
                <g id="关--闭" transform="translate(3.000000, 3.000000)" fill="#BCBECC" fill-rule="nonzero">
                    <path d="M8.07013439,7.00175815 L13.713891,1.49537674 L13.7138909,1.49537676 C13.9939336,1.22188972 13.9992493,0.773164593 13.7257624,0.493121885 C13.7218523,0.489118003 13.7178949,0.485160565 13.713891,0.481250431 L13.6832659,0.451500397 L13.6832659,0.451500399 C13.3924375,0.173720388 12.9345932,0.173720388 12.6437647,0.451500394 L7.00000817,5.96575681 L1.3562516,0.451500394 L1.3562516,0.451500397 C1.06542314,0.173720386 0.607578856,0.173720386 0.316750392,0.451500392 L0.285250356,0.481250427 L0.285250294,0.481250485 C0.00496559273,0.743999618 -0.00924907225,1.18421673 0.253500198,1.46450143 C0.263739187,1.47542374 0.274328094,1.48601265 0.285250431,1.49625167 L5.929007,7.00175807 L0.285250431,12.5081395 L0.285250489,12.5081394 C0.0049657879,12.781379 -0.000746328118,13.2300987 0.272493029,13.5103834 C0.276691174,13.5146898 0.280943966,13.5189426 0.285250366,13.5231407 L0.316750403,13.5528907 L0.316750353,13.5528907 C0.607578816,13.8306707 1.0654231,13.8306707 1.35625156,13.5528908 L7.00000813,8.04650937 L12.6437647,13.5528908 L12.6437646,13.5528907 C12.9345931,13.8306707 13.3924374,13.8306707 13.6832659,13.5528908 L13.7147659,13.5222658 L13.7147659,13.5222658 C13.9948086,13.2487788 14.0001242,12.8000536 13.7266374,12.5200109 C13.7227272,12.5160071 13.7187698,12.5120496 13.7147659,12.5081395 L8.07100934,7.00175808 L8.07013439,7.00175815 Z" id="路径"></path>
                </g>
            </g>
        </g>
    </g>
</svg>