<?xml version="1.0" encoding="UTF-8"?>
<svg width="20px" height="20px" viewBox="0 0 20 20" version="1.1" xmlns="http://www.w3.org/2000/svg" xmlns:xlink="http://www.w3.org/1999/xlink">
    <title>导出-hov</title>
    <g id="导出-hov" stroke="none" stroke-width="1" fill="none" fill-rule="evenodd">
        <path d="M16,10.2694974 C16.3796958,10.2694974 16.693491,10.5516513 16.7431534,10.9177269 L16.75,11.0194974 L16.75,13.0194974 C16.75,14.4820293 15.6082954,15.6779017 14.1675223,15.7644786 L14,15.7694974 L6,15.7694974 C4.53746816,15.7694974 3.34159572,14.6277928 3.25501879,13.1870198 L3.25,13.0194974 L3.25,11.0194974 C3.25,10.6052839 3.58578644,10.2694974 4,10.2694974 C4.37969577,10.2694974 4.69349096,10.5516513 4.74315338,10.9177269 L4.75,11.0194974 L4.75,13.0194974 C4.75,13.6667061 5.24187466,14.1990313 5.87219476,14.2630438 L6,14.2694974 L14,14.2694974 C14.6472087,14.2694974 15.1795339,13.7776228 15.2435464,13.1473027 L15.25,13.0194974 L15.25,11.0194974 C15.25,10.6052839 15.5857864,10.2694974 16,10.2694974 Z M9.54654604,2.40107262 C9.82100783,2.18801587 10.2101663,2.19214605 10.4801763,2.41339778 L10.4801763,2.41339778 L10.5519288,2.48044095 L14.6270098,6.81265165 L14.6970225,6.89895069 C14.9057995,7.19908474 14.8688674,7.61481371 14.5945856,7.8728161 C14.3180181,8.13296851 13.8961314,8.14244972 13.6091373,7.90982977 L13.6091373,7.90982977 L13.5344211,7.84039189 L10.7553749,4.88684234 L10.7556889,11.2508423 L10.7488423,11.3526129 C10.6991799,11.7186885 10.3853847,12.0008423 10.0056889,12.0008423 C9.62599316,12.0008423 9.31219797,11.7186885 9.26253555,11.3526129 L9.26253555,11.3526129 L9.25568893,11.2508423 L9.25537492,4.88484234 L6.43638397,7.87851045 L6.35376515,7.95418629 C6.09316915,8.15943629 5.72548327,8.16846133 5.45498528,7.97512807 L5.45498528,7.97512807 L5.37620155,7.9103419 L5.30052571,7.82772308 C5.09527571,7.56712708 5.08625067,7.1994412 5.27958393,6.92894321 L5.27958393,6.92894321 L5.3443701,6.85015948 L9.45962758,2.48013559 Z" id="形状结合" fill="#415FFF" fill-rule="nonzero"></path>
    </g>
</svg>