<?xml version="1.0" encoding="UTF-8"?>
<svg width="20px" height="20px" viewBox="0 0 20 20" version="1.1" xmlns="http://www.w3.org/2000/svg" xmlns:xlink="http://www.w3.org/1999/xlink">
    <title>表情-hov</title>
    <g id="策划评审后-new" stroke="none" stroke-width="1" fill="none" fill-rule="evenodd">
        <g id="回复-表情-1920" transform="translate(-602.000000, -643.000000)">
            <g id="表情-hov" transform="translate(602.000000, 643.000000)">
                <path d="M9.7777872,0 L9.77778677,0 C4.37766134,0 0,4.37766282 0,9.77778824 C0,9.77778824 0,9.77778824 0,9.77778824 L0,9.77778677 C0,15.1779122 4.37766134,19.5555735 9.77778677,19.5555735 L9.77778634,19.5555735 C15.1779118,19.5555735 19.5555731,15.1779122 19.5555731,9.77778677 L19.5555731,9.77778677 C19.5555731,4.37766134 15.1779118,0 9.77778634,0 L9.7777872,0 Z M12.1635654,5.80800823 C12.4397881,5.53423038 12.8113437,5.3802302 13.2000115,5.37778527 C13.5837895,5.37778527 13.966345,5.53667444 14.2364576,5.80800823 C14.5077906,6.07811871 14.6666806,6.46067638 14.6666806,6.84445436 C14.6666806,7.22823235 14.5077914,7.61078787 14.2364576,7.88090049 C13.9614573,8.15467835 13.5886793,8.30867853 13.2000115,8.31112345 L13.2000114,8.31112345 C12.8114768,8.30918988 12.4392574,8.15468329 12.1635653,7.88090049 L12.1635654,7.88090059 C11.8897832,7.60521062 11.735276,7.23298909 11.7333424,6.84445446 C11.7333424,6.46067647 11.8922316,6.07812095 12.1635654,5.80800833 L12.1635654,5.80800823 Z M5.31910818,5.80800823 C5.59533096,5.53423038 5.96688647,5.3802302 6.35555431,5.37778527 C6.73933229,5.37778527 7.12188782,5.53667444 7.39200044,5.80800823 C7.66333337,6.07811871 7.8222234,6.46067638 7.8222234,6.84445436 C7.8222234,7.22823235 7.66333423,7.61078787 7.39200044,7.88090049 C7.11700012,8.15467835 6.74422214,8.30867853 6.35555431,8.31112345 L6.35555424,8.31112345 C5.96701961,8.30918988 5.59480023,8.15468329 5.31910811,7.88090049 L5.31910821,7.88090059 C5.04532605,7.60521062 4.89081884,7.23298909 4.88888524,6.84445446 C4.88888524,6.46067647 5.04777441,6.07812095 5.31910821,5.80800833 L5.31910818,5.80800823 Z M15.6725694,10.9523404 C15.4525692,13.8074453 13.1254649,16.0343463 9.85966424,16.0221217 C6.50098651,16.0587885 4.17265763,13.7194452 4.04798365,10.9523404 L4.04798368,10.9523405 C4.01337919,10.8828614 3.99542805,10.8062934 3.99542805,10.7286728 C3.99542805,10.4365623 4.24476102,10.1994497 4.56009615,10.2018759 L15.1690069,10.2018759 C15.4770073,10.2018759 15.7287851,10.4390051 15.7287851,10.7286728 L15.7287851,10.7286728 C15.7269582,10.8064882 15.7077485,10.8829095 15.6725628,10.9523404 L15.6725694,10.9523404 Z" id="形状" fill="#415FFF" fill-rule="nonzero"></path>
                <rect id="矩形" x="0" y="0" width="20" height="20"></rect>
            </g>
        </g>
    </g>
</svg>