<?xml version="1.0" encoding="UTF-8"?>
<svg width="20px" height="20px" viewBox="0 0 20 20" version="1.1" xmlns="http://www.w3.org/2000/svg" xmlns:xlink="http://www.w3.org/1999/xlink">
    <title>导入-hov</title>
    <g id="导入-hov" stroke="none" stroke-width="1" fill="none" fill-rule="evenodd">
        <path d="M16,10.2694974 C16.3796958,10.2694974 16.693491,10.5516513 16.7431534,10.9177269 L16.75,11.0194974 L16.75,13.0194974 C16.75,14.4820293 15.6082954,15.6779017 14.1675223,15.7644786 L14,15.7694974 L6,15.7694974 C4.53746816,15.7694974 3.34159572,14.6277928 3.25501879,13.1870198 L3.25,13.0194974 L3.25,11.0194974 C3.25,10.6052839 3.58578644,10.2694974 4,10.2694974 C4.37969577,10.2694974 4.69349096,10.5516513 4.74315338,10.9177269 L4.75,11.0194974 L4.75,13.0194974 C4.75,13.6667061 5.24187466,14.1990313 5.87219476,14.2630438 L6,14.2694974 L14,14.2694974 C14.6472087,14.2694974 15.1795339,13.7776228 15.2435464,13.1473027 L15.25,13.0194974 L15.25,11.0194974 C15.25,10.6052839 15.5857864,10.2694974 16,10.2694974 Z M10.0056889,2.24431107 C10.3853847,2.24431107 10.6991799,2.52646495 10.7488423,2.89254051 L10.7556889,2.99431107 L10.7553749,9.35831107 L13.5344211,6.40476152 L13.6091373,6.33532365 C13.8961314,6.10270369 14.3180181,6.1121849 14.5945856,6.37233731 C14.8688674,6.6303397 14.9057995,7.04606868 14.6970225,7.34620272 L14.6270098,7.43250177 L10.5519288,11.7647125 L10.4801763,11.8317556 C10.2101663,12.0530074 9.82100783,12.0571375 9.54654604,11.8440808 L9.45962758,11.7650178 L5.3443701,7.39499393 L5.27958393,7.3162102 C5.08625067,7.04571221 5.09527571,6.67802634 5.30052571,6.41743034 L5.37620155,6.33481151 L5.45498528,6.27002534 C5.72548327,6.07669208 6.09316915,6.08571712 6.35376515,6.29096712 L6.43638397,6.36664297 L9.25537492,9.36031107 L9.25568893,2.99431107 L9.26253555,2.89254051 C9.31219797,2.52646495 9.62599316,2.24431107 10.0056889,2.24431107 Z" id="形状结合" fill="#415FFF" fill-rule="nonzero"></path>
    </g>
</svg>