<?xml version="1.0" encoding="UTF-8"?>
<svg width="132px" height="24px" viewBox="0 0 132 24" version="1.1" xmlns="http://www.w3.org/2000/svg" xmlns:xlink="http://www.w3.org/1999/xlink">
    <title>logo</title>
    <defs>
        <polygon id="path-1" points="4.75247525e-05 0 131.619945 0 131.619945 23.979802 4.75247525e-05 23.979802"></polygon>
    </defs>
    <g id="策划评审后-new" stroke="none" stroke-width="1" fill="none" fill-rule="evenodd">
        <g id="评论内容管理-回复展开-1920备份" transform="translate(-48.000000, -12.000000)">
            <g id="logo" transform="translate(48.000000, 12.000000)">
                <rect id="bj" x="0" y="0" width="132" height="24"></rect>
                <mask id="mask-2" fill="white">
                    <use xlink:href="#path-1"></use>
                </mask>
                <g id="Clip-2"></g>
                <path d="M29.6277624,12.7722772 L39.2232475,12.7722772 L39.2232475,9.46205941 L29.6277624,9.46205941 L29.6277624,12.7722772 Z M29.6277624,17.2305743 L39.2232475,17.2305743 L39.2232475,13.9508911 L29.6277624,13.9508911 L29.6277624,17.2305743 Z M26.533901,6.42320792 L33.403604,6.42320792 L32.8877228,8.28344554 L28.0808317,8.28344554 L28.0808317,18.4093069 L40.7704158,18.4093069 L40.7704158,8.74360396 C40.7704158,8.4679604 40.5863762,8.28344554 40.3100198,8.28344554 L34.5085545,8.28344554 L35.0240792,6.42320792 L42.3725941,6.42320792 L42.3725941,5.20752475 L26.533901,5.20752475 L26.533901,6.42320792 Z" id="Fill-1" fill="#4867FF" mask="url(#mask-2)"></path>
                <path d="M58.6504277,5.50270099 C58.6504277,5.22634455 58.4665069,5.04171089 58.1902693,5.04171089 L45.9796158,5.04171089 L45.9796158,6.25763168 L57.103497,6.25763168 L57.103497,7.3257505 L46.4950218,7.3257505 L46.4950218,8.43093861 L57.103497,8.43093861 L57.103497,9.60955248 L45.7583881,9.60955248 L45.7583881,10.8254733 L58.6504277,10.8254733 L58.6504277,5.50270099 Z" id="Fill-3" fill="#4867FF" mask="url(#mask-2)"></path>
                <path d="M53.1804475,13.0723129 C53.2542297,12.7219366 53.2910614,12.3350851 53.2910614,11.9489465 L53.2910614,11.1934218 L51.7440119,11.1934218 L51.7440119,11.9489465 C51.7440119,14.9506099 49.4052,16.2027683 44.3034178,17.4556396 L45.8321703,18.4313228 C49.0921307,17.6948079 51.5599723,16.4609465 52.6465069,14.4903327 C54.1567248,16.4238772 56.2563683,17.5472436 59.295101,18.4685109 L60.8239723,17.4003921 C57.2692396,16.6085109 54.5621109,15.1897782 53.1804475,13.0723129" id="Fill-4" fill="#4867FF" mask="url(#mask-2)"></path>
                <polygon id="Fill-5" fill="#4867FF" mask="url(#mask-2)" points="55.0961703 14.7848792 56.8271406 14.7848792 59.4426653 11.9117703 57.7113386 11.9117703"></polygon>
                <polygon id="Fill-6" fill="#4867FF" mask="url(#mask-2)" points="50.0312317 14.7848792 47.5080238 11.9117703 45.7584 11.9117703 48.2631921 14.7848792"></polygon>
                <polygon id="Fill-7" fill="#4867FF" mask="url(#mask-2)" points="66.8616713 6.11056634 63.2332752 4.6002297 63.2332752 5.99995248 66.8616713 7.50969505"></polygon>
                <polygon id="Fill-8" fill="#4867FF" mask="url(#mask-2)" points="76.162301 10.1623485 77.3962812 7.45438812 75.9230139 7.45438812 74.7073307 10.1623485"></polygon>
                <polygon id="Fill-9" fill="#4867FF" mask="url(#mask-2)" points="69.8085386 7.45438812 68.3163802 7.45438812 69.4584 10.1623485 70.9133703 10.1623485"></polygon>
                <path d="M66.0513386,9.38868119 C66.0513386,9.11232475 65.8669426,8.92828515 65.590705,8.92828515 L62.0730416,8.92828515 L62.0730416,10.1804436 L64.541002,10.1804436 L64.541002,17.6948198 C64.541002,17.8788594 64.798705,17.9893545 64.9460317,17.9341069 C66.1800119,17.4184634 67.3219129,16.7190178 68.445398,15.9816713 L68.445398,14.5819485 C67.727299,15.0057505 66.8063881,15.5213941 66.0513386,15.8900673 L66.0513386,9.38868119 Z" id="Fill-10" fill="#4867FF" mask="url(#mask-2)"></path>
                <polygon id="Fill-11" fill="#4867FF" mask="url(#mask-2)" points="73.5471683 6.49682376 77.5988911 6.49682376 77.5988911 5.24466535 67.8375446 5.24466535 67.8375446 6.49682376 72.0368317 6.49682376 72.0368317 11.1199129 67.321901 11.1199129 67.321901 12.3720713 72.0368317 12.3720713 72.0368317 18.3391604 73.5471683 18.3391604 73.5471683 12.3720713 78.2619802 12.3720713 78.2619802 11.1199129 73.5471683 11.1199129"></polygon>
                <polygon id="Fill-12" fill="#4867FF" mask="url(#mask-2)" points="84.5393584 6.1287802 80.8740119 4.60026535 80.8740119 5.99998812 84.5393584 7.52850297"></polygon>
                <path d="M90.3590495,5.64958812 C91.6849901,7.4914099 93.0847129,8.87307327 95.0925149,10.3832911 L96.326495,9.60958812 C93.9136634,7.84119208 92.5324752,6.4603604 91.298495,4.71085545 L89.4013069,4.71085545 C88.2228119,6.40511287 86.8967525,7.82301386 84.5394059,9.62788515 L85.7915644,10.3832911 L86.841505,9.5173901 L86.841505,16.1663406 C86.841505,16.8288356 86.9701782,17.2898257 87.283604,17.5660634 C87.6147327,17.8424198 88.0936634,17.9712119 88.7567525,17.9712119 L92.0718416,17.9712119 C93.4349703,17.9712119 94.4293069,17.6214297 95.5159604,16.8840832 L95.5159604,15.5214297 C94.2634455,16.3874495 93.1771485,16.7190535 92.0351287,16.7190535 L89.0698218,16.7190535 C88.5724752,16.7190535 88.3517228,16.5161228 88.3517228,16.0186574 L88.3517228,13.2192119 C90.6721188,12.814301 92.3296634,12.3168356 94.3558812,11.6354495 L94.3558812,10.3462218 C92.2191683,11.138103 90.6906535,11.580202 88.3517228,12.0041228 L88.3517228,9.48091485 L86.8596832,9.48091485 C88.2965941,8.22804356 89.3828911,7.03125149 90.3590495,5.64958812" id="Fill-13" fill="#4867FF" mask="url(#mask-2)"></path>
                <path d="M83.6368871,9.49914059 C83.6368871,9.22278416 83.4526099,9.03886337 83.1762535,9.03886337 L79.8426297,9.03886337 L79.8426297,10.2910218 L82.1633822,10.2910218 L82.1633822,17.6396554 C82.1633822,17.8424673 82.3843723,17.9893188 82.6053624,17.8788238 C83.784095,17.3262297 84.723303,16.7742297 85.6994614,16.1110218 L85.6994614,14.6743485 C84.9996594,15.153398 84.4102337,15.5214772 83.6368871,15.9082099 L83.6368871,9.49914059 Z" id="Fill-14" fill="#4867FF" mask="url(#mask-2)"></path>
                <path d="M106.477782,12.4644356 L111.929228,12.4644356 L111.929228,7.80487129 L106.477782,7.80487129 L106.477782,12.4644356 Z M99.4789307,12.4644356 L104.930733,12.4644356 L104.930733,7.80487129 L99.4789307,7.80487129 L99.4789307,12.4644356 Z M112.978931,6.51564356 L106.477782,6.51564356 L106.477782,4.52625743 L104.930733,4.52625743 L104.930733,6.51564356 L97.9687129,6.51564356 L97.9687129,13.7536634 L104.930733,13.7536634 L104.930733,18.3390891 L106.477782,18.3390891 L106.477782,13.7536634 L113.439564,13.7536634 L113.439564,6.97592079 C113.439564,6.69968317 113.255168,6.51564356 112.978931,6.51564356 L112.978931,6.51564356 Z" id="Fill-15" fill="#4867FF" mask="url(#mask-2)"></path>
                <path d="M118.727644,16.6266535 L128.599366,16.6266535 L128.599366,12.6112871 L118.727644,12.6112871 L118.727644,16.6266535 Z M129.649069,11.396198 L117.217426,11.396198 L117.217426,17.8424554 L130.109703,17.8424554 L130.109703,11.8565941 C130.109703,11.5802376 129.925426,11.396198 129.649069,11.396198 L129.649069,11.396198 Z" id="Fill-16" fill="#4867FF" mask="url(#mask-2)"></path>
                <path d="M125.486875,9.33333861 C126.83135,9.20466535 127.918123,9.01991287 128.986242,8.78074455 L129.759588,9.7201901 L131.619945,9.7201901 L128.046796,5.48395248 L126.315826,5.48395248 L128.15741,7.74957624 C127.181133,7.98886337 126.223509,8.13654653 124.98941,8.24692277 C124.197648,8.32046733 123.295271,8.37571485 122.190321,8.41278416 C121.14038,8.44914059 119.924935,8.46803168 118.469846,8.46803168 C120.127509,7.23405149 121.545648,5.9811802 122.963667,4.5262099 L121.04842,4.5262099 C119.685291,5.88957624 118.212143,7.17880396 115.965172,8.87306139 C115.744182,9.03880396 115.688816,9.29626931 115.780895,9.46201188 C115.836024,9.57262574 115.965172,9.64676436 116.149093,9.64676436 C118.617172,9.64676436 120.569489,9.60957624 122.190321,9.55432871 C123.47943,9.4992 124.547786,9.42565545 125.486875,9.33333861" id="Fill-17" fill="#4867FF" mask="url(#mask-2)"></path>
                <path d="M13.4412356,10.6134653 L13.4399287,10.6134653 C13.0218297,10.4827723 12.5834139,10.3984158 12.1307406,10.3675248 C11.9988594,10.3580198 11.8644832,10.3533861 11.7303446,10.3533861 L7.49339406,10.3533861 C7.40072079,10.3592079 7.30816634,10.3687129 7.21668119,10.3794059 C4.91648317,10.6514851 3.03569109,12.2910891 2.40836436,14.461901 C2.40836436,14.4629703 2.40717624,14.4653465 2.40717624,14.4677228 L2.32151287,14.8063366 C2.32032475,14.809901 2.31925545,14.8122772 2.31925545,14.8158416 L1.36400792,18.5906139 L0.557275248,21.7770297 L4.75247525e-05,23.979802 L3.74725545,21.7770297 L3.78052277,21.7568317 C3.79014653,21.7639604 3.79846337,21.7710891 3.80796832,21.7770297 L11.7303446,21.7770297 C11.8644832,21.7770297 11.9988594,21.7722772 12.1307406,21.7627723 C15.0986614,21.5572277 17.4428198,19.0848713 17.4428198,16.0646733 C17.4428198,13.5065347 15.7604436,11.341901 13.4412356,10.6134653" id="Fill-18" fill="#4867FF" mask="url(#mask-2)"></path>
                <path d="M12.8269782,4.62529901 C12.1556911,4.62529901 11.6115327,4.08114059 11.6115327,3.40997228 C11.6115327,2.73868515 12.1556911,2.19333861 12.8269782,2.19333861 C13.4981465,2.19333861 14.042305,2.73868515 14.042305,3.40997228 C14.042305,4.08114059 13.4981465,4.62529901 12.8269782,4.62529901 L12.8269782,4.62529901 Z M20.5971564,-4.75247525e-05 L10.5088396,-4.75247525e-05 C8.76955248,-4.75247525e-05 7.21062178,0.778289109 6.16400792,2.00561584 C5.65656238,2.59967525 5.26935446,3.2981703 5.03885941,4.06462574 C4.99133465,4.22383366 4.9497505,4.38529901 4.91648317,4.54925941 L4.91398812,4.56125941 L3.78895842,9.00363564 L3.44796832,10.3533386 L3.35767129,10.7085861 C3.50262178,10.584903 3.65232475,10.464903 3.80796832,10.3533386 C4.47319604,9.86858614 5.22658218,9.49658614 6.03925545,9.26727921 C6.64994851,9.09512079 7.29497822,9.00363564 7.96044356,9.00363564 L11.7303446,9.00363564 C13.4684436,9.00363564 15.0261861,8.22660594 16.0739881,7.00153663 L16.0739881,7.00034851 C16.9283644,6.00114059 17.4428198,4.7062099 17.4428198,3.2911604 C17.4428198,3.03440792 17.4261861,2.78133861 17.3929188,2.5342099 L17.4428198,2.49500198 L20.5971564,-4.75247525e-05 Z" id="Fill-19" fill="#4867FF" mask="url(#mask-2)"></path>
                <path d="M31.3342574,4.06454257 L31.2118812,4.54929505 C31.2451485,4.38533465 31.2867327,4.2237505 31.3342574,4.06454257" id="Fill-20" fill="#4867FF" mask="url(#mask-2)"></path>
            </g>
        </g>
    </g>
</svg>