<svg t="1637061763013" class="icon" viewBox="0 0 1024 1024" version="1.1" xmlns="http://www.w3.org/2000/svg" p-id="4604" width="200" height="200"><path d="M344.283429 249.563429a18.285714 18.285714 0 1 1 36.571428 0 18.285714 18.285714 0 0 1-36.571428 0z m414.793142 200.192a47.396571 47.396571 0 1 1 94.72 0 47.396571 47.396571 0 0 1-94.72 0zM489.910857 293.302857a36.278857 36.278857 0 1 1 72.557714 0 36.278857 36.278857 0 0 1-72.484571 0z m47.396572-127.341714a29.110857 29.110857 0 1 1 58.148571 0 29.110857 29.110857 0 0 1-58.148571 0z m167.277714 420.352a16.310857 16.310857 0 1 1 32.621714 0 16.310857 16.310857 0 0 1-32.621714 0z m-192.731429 437.394286a508.196571 508.196571 0 0 1-361.325714-150.674286A508.196571 508.196571 0 0 1 0 511.926857c0-135.899429 53.540571-264.265143 150.601143-361.325714A508.196571 508.196571 0 0 1 511.853714 0a514.194286 514.194286 0 0 1 361.910857 149.942857l29.037715 29.037714-364.178286 359.936-57.490286-58.075428 304.420572-301.202286a433.005714 433.005714 0 0 0-273.700572-98.304 431.104 431.104 0 0 0-430.518857 430.518857 431.104 431.104 0 0 0 430.518857 430.518857 430.884571 430.884571 0 0 0 418.742857-530.505142l79.36-18.944a508.196571 508.196571 0 0 1-136.557714 480.182857 509.513143 509.513143 0 0 1-361.545143 150.601143z" p-id="4605" fill="#ffffff"></path></svg>