<?xml version="1.0" encoding="UTF-8"?>
<svg width="20px" height="20px" viewBox="0 0 20 20" version="1.1" xmlns="http://www.w3.org/2000/svg" xmlns:xlink="http://www.w3.org/1999/xlink">
    <title>刷新-nor</title>
    <g id="刷新-nor" stroke="none" stroke-width="1" fill="none" fill-rule="evenodd">
        <path d="M15.7599633,3.25 C16.1396591,3.25 16.4534543,3.53215388 16.5031167,3.89822944 L16.5099633,4 L16.5099633,8 C16.5099633,8.37969577 16.2278095,8.69349096 15.8617339,8.74315338 L15.7599633,8.75 L11.7599633,8.75 C11.3457498,8.75 11.0099633,8.41421356 11.0099633,8 C11.0099633,7.62030423 11.2921172,7.30650904 11.6581928,7.25684662 L11.7599633,7.25 L14.7611874,7.2519847 C14.59998,7.20983874 14.4517289,7.1139703 14.345759,6.96894263 C13.3368239,5.58814029 11.7046991,4.75 9.9243727,4.75 C6.92960737,4.75 4.50996333,7.10511034 4.50996333,10 C4.50996333,12.8948897 6.92960737,15.25 9.9243727,15.25 C12.2637607,15.25 14.3130528,13.7989368 15.0521894,11.6903866 C15.1892139,11.2994938 15.6171754,11.0936929 16.0080682,11.2307175 C16.398961,11.367742 16.6047618,11.7957036 16.4677373,12.1865963 C15.5176899,14.8968162 12.9004951,16.75 9.9243727,16.75 C6.11011946,16.75 3.00996333,13.7325273 3.00996333,10 C3.00996333,6.26747266 6.11011946,3.25 9.9243727,3.25 C11.8896694,3.25 13.7186108,4.05698757 15.010545,5.42684922 L15.0099633,4 C15.0099633,3.62030423 15.2921172,3.30650904 15.6581928,3.25684662 L15.7599633,3.25 Z" id="形状结合" fill="#8B8FA6" fill-rule="nonzero"></path>
    </g>
</svg>