<?xml version="1.0" encoding="UTF-8"?>
<svg width="16px" height="16px" viewBox="0 0 16 16" version="1.1" xmlns="http://www.w3.org/2000/svg" xmlns:xlink="http://www.w3.org/1999/xlink">
    <title>更多--nor</title>
    <g id="更多--nor" stroke="none" stroke-width="1" fill="none" fill-rule="evenodd">
        <rect id="透明底块" x="0" y="0" width="16" height="16"></rect>
        <path d="M8.16568233,11.5975976 C8.81002934,11.5975976 9.33136465,12.1321321 9.33136465,12.7987988 C9.33136465,13.4654655 8.81002934,14 8.16568233,14 C7.52133531,14 7,13.4654655 7,12.7987988 C7,12.1381381 7.52133531,11.5975976 8.16568233,11.5975976 Z M8.16568233,6.7987988 C8.81002934,6.7987988 9.33136465,7.33933934 9.33136465,8 C9.33136465,8.66066066 8.81002934,9.2012012 8.16568233,9.2012012 C7.52133531,9.2012012 7,8.66666667 7,8 C7,7.33333333 7.52133531,6.7987988 8.16568233,6.7987988 Z M8.16568233,2 C8.81002934,2 9.33136465,2.53453453 9.33136465,3.2012012 C9.33136465,3.86786787 8.81002934,4.4024024 8.16568233,4.4024024 C7.52133531,4.4024024 7,3.86186186 7,3.2012012 C7,2.54054054 7.52133531,2 8.16568233,2 Z" id="形状结合" fill="#727485" fill-rule="nonzero" transform="translate(8.165682, 8.000000) rotate(-360.000000) translate(-8.165682, -8.000000) "></path>
    </g>
</svg>