<?xml version="1.0" encoding="UTF-8"?>
<svg width="20px" height="20px" viewBox="0 0 20 20" version="1.1" xmlns="http://www.w3.org/2000/svg" xmlns:xlink="http://www.w3.org/1999/xlink">
    <title>导入-白色</title>
    <g id="策划评审后-new" stroke="none" stroke-width="1" fill="none" fill-rule="evenodd">
        <g id="导入数据-少量数据-1920" transform="translate(-840.000000, -376.000000)">
            <g id="按钮/主按钮/图标+文字/中" transform="translate(822.000000, 370.000000)">
                <g id="编组-28" transform="translate(18.000000, 5.000000)">
                    <g id="导入-白色" transform="translate(0.000000, 1.000000)">
                        <rect id="透明底块" x="0" y="0" width="20" height="20"></rect>
                        <path d="M16,11.2694974 C16.3796958,11.2694974 16.693491,11.5516513 16.7431534,11.9177269 L16.75,12.0194974 L16.75,14.0194974 C16.75,15.4820293 15.6082954,16.6779017 14.1675223,16.7644786 L14,16.7694974 L6,16.7694974 C4.53746816,16.7694974 3.34159572,15.6277928 3.25501879,14.1870198 L3.25,14.0194974 L3.25,12.0194974 C3.25,11.6052839 3.58578644,11.2694974 4,11.2694974 C4.37969577,11.2694974 4.69349096,11.5516513 4.74315338,11.9177269 L4.75,12.0194974 L4.75,14.0194974 C4.75,14.6667061 5.24187466,15.1990313 5.87219476,15.2630438 L6,15.2694974 L14,15.2694974 C14.6472087,15.2694974 15.1795339,14.7776228 15.2435464,14.1473027 L15.25,14.0194974 L15.25,12.0194974 C15.25,11.6052839 15.5857864,11.2694974 16,11.2694974 Z M10.0056889,3.24431107 C10.3853847,3.24431107 10.6991799,3.52646495 10.7488423,3.89254051 L10.7556889,3.99431107 L10.7553749,10.3583111 L13.5344211,7.40476152 L13.6091373,7.33532365 C13.8961314,7.10270369 14.3180181,7.1121849 14.5945856,7.37233731 C14.8688674,7.6303397 14.9057995,8.04606868 14.6970225,8.34620272 L14.6270098,8.43250177 L10.5519288,12.7647125 L10.4801763,12.8317556 C10.2101663,13.0530074 9.82100783,13.0571375 9.54654604,12.8440808 L9.45962758,12.7650178 L5.3443701,8.39499393 L5.27958393,8.3162102 C5.08625067,8.04571221 5.09527571,7.67802634 5.30052571,7.41743034 L5.37620155,7.33481151 L5.45498528,7.27002534 C5.72548327,7.07669208 6.09316915,7.08571712 6.35376515,7.29096712 L6.43638397,7.36664297 L9.25537492,10.3603111 L9.25568893,3.99431107 L9.26253555,3.89254051 C9.31219797,3.52646495 9.62599316,3.24431107 10.0056889,3.24431107 Z" id="形状结合" fill="#FFFFFF" fill-rule="nonzero"></path>
                    </g>
                </g>
            </g>
        </g>
    </g>
</svg>