<?xml version="1.0" encoding="UTF-8"?>
<svg width="16px" height="16px" viewBox="0 0 16 16" version="1.1" xmlns="http://www.w3.org/2000/svg" xmlns:xlink="http://www.w3.org/1999/xlink">
    <title>提示-嫌疑</title>
    <g id="提示-嫌疑" stroke="none" stroke-width="1" fill="none" fill-rule="evenodd">
        <path d="M8,1 C11.8659932,1 15,4.13400675 15,8 C15,11.8659932 11.8659932,15 8,15 C4.13400675,15 1,11.8659932 1,8 C1,4.13400675 4.13400675,1 8,1 Z M8,11 C7.58578644,11 7.25,11.3357864 7.25,11.75 C7.25,12.1642136 7.58578644,12.5 8,12.5 C8.41421356,12.5 8.75,12.1642136 8.75,11.75 C8.75,11.3357864 8.41421356,11 8,11 Z M8.75,4 L7.25,4 L7.5,9.5 L8.5,9.5 L8.75,4 Z" id="形状结合" fill="#FA8B15"></path>
    </g>
</svg>