<?xml version="1.0" encoding="UTF-8"?>
<svg width="21px" height="18px" viewBox="0 0 21 18" version="1.1" xmlns="http://www.w3.org/2000/svg" xmlns:xlink="http://www.w3.org/1999/xlink">
    <!-- Generator: Sketch 54 (76480) - https://sketchapp.com -->
    <title>数据统计管理复制 2</title>
    <desc>Created with Sketch.</desc>
    <g id="页面1" stroke="none" stroke-width="1" fill="none" fill-rule="evenodd">
        <g id="画板" transform="translate(-147.000000, -117.000000)" fill="#ffffff" fill-rule="nonzero">
            <g id="数据统计管理复制-2" transform="translate(145.000000, 114.000000)">
                <g id="编组-4" transform="translate(2.105437, 2.784394)">
                    <path d="M2.37209375,16.25 L19.6220938,16.25 C20.0363073,16.25 20.3720938,16.5857864 20.3720938,17 C20.3720938,17.4142136 20.0363073,17.75 19.6220938,17.75 L1.62209375,17.75 C1.20788019,17.75 0.87209375,17.4142136 0.87209375,17 L0.87209375,1 C0.87209375,0.585786438 1.20788019,0.25 1.62209375,0.25 C2.03630731,0.25 2.37209375,0.585786438 2.37209375,1 L2.37209375,16.25 Z M13.0413238,12.6313522 L8.59061325,9.49065689 L5.19221556,13.4666498 C4.9230873,13.7815194 4.44966351,13.8186001 4.13479393,13.5494718 C3.81992434,13.2803436 3.78284368,12.8069198 4.05197194,12.4920502 L7.89446029,7.99648846 C8.14610884,7.70206946 8.58055091,7.64768974 8.89700418,7.87099865 L13.3536946,11.0159137 L19.0572255,4.48597 C19.3297117,4.17400186 19.8035056,4.14199547 20.1154738,4.41448172 C20.4274419,4.68696797 20.4594483,5.16076187 20.186962,5.47273 L14.0386141,12.5119425 C13.7858499,12.801331 13.3552629,12.8528869 13.0413238,12.6313522 Z" id="数据统计管理复制-2"></path>
                </g>
            </g>
        </g>
    </g>
</svg>
