<?xml version="1.0" encoding="UTF-8"?>
<svg width="24px" height="24px" viewBox="0 0 24 24" version="1.1" xmlns="http://www.w3.org/2000/svg" xmlns:xlink="http://www.w3.org/1999/xlink">
    <!-- Generator: Sketch 63 (92445) - https://sketch.com -->
    <title>推荐品台</title>
    <desc>Created with Sketch.</desc>
    <g id="页面1" stroke="none" stroke-width="1" fill="none" fill-rule="evenodd">
        <g id="画板" transform="translate(-421.000000, -114.000000)" fill="#FFFFFF" fill-rule="nonzero">
            <path d="M433.435023,116.433484 C434.806353,114.551507 437.638089,114.880863 438.27843,117.085707 C438.529474,117.950111 438.455484,119.47639 438.082938,121.780472 L438.082938,121.780472 L438.046,121.999 L441.379033,122 C442.976714,122 444.282694,123.24892 444.37394,124.823727 L444.37394,124.823727 L444.379033,125 C444.379033,125.267558 444.34324,125.533914 444.272607,125.79198 L444.272607,125.79198 L441.809278,134.79198 C441.452401,136.095864 440.267546,137 438.915705,137 L438.915705,137 L425,137 C423.343146,137 422,135.656854 422,134 L422,134 L422,125 C422,123.343146 423.343146,122 425.000184,122 L425.000184,122 L429.771,122 L429.827839,121.965379 C430.460247,121.549805 431.004649,121.016832 431.464507,120.360848 L431.464507,120.360848 L431.656423,120.072164 C431.951617,119.603915 432.091784,119.319656 432.339288,118.683684 L432.339288,118.683684 L432.615578,117.962169 L432.765683,117.602253 C432.95228,117.180833 433.161854,116.808374 433.435023,116.433484 Z M436.324442,117.552941 C436.117351,117.095685 435.457191,117.054435 435.051424,117.611298 C434.86654,117.865029 434.726111,118.114603 434.594434,118.411989 C434.527248,118.563724 434.466068,118.717488 434.374152,118.96125 L434.374152,118.96125 L434.277051,119.217193 C433.93683,120.107191 433.758682,120.487758 433.348287,121.138747 C432.618361,122.29659 431.685236,123.2095 430.556272,123.865545 C430.403622,123.95425 430.230209,124.00096 430.053657,124.000928 L430.053657,124.000928 L425,124 C424.447715,124 424,124.447715 424,125 L424,125 L424,134 C424,134.552285 424.447715,135 425,135 L425,135 L438.915705,135 C439.366319,135 439.76127,134.698621 439.880229,134.263993 L439.880229,134.263993 L442.343558,125.263993 C442.367102,125.177971 442.379033,125.089186 442.379033,125 C442.379033,124.447715 441.931318,124 441.378894,124 L441.378894,124 L436.854524,123.999371 C436.228902,123.999285 435.756982,123.431229 435.871584,122.816192 C436.388112,120.044105 436.535289,118.254678 436.35779,117.643508 L436.35779,117.643508 Z M427,125 C427.512836,125 427.935507,125.38604 427.993272,125.883379 L428,126 L428,133 C428,133.552285 427.552285,134 427,134 C426.487164,134 426.064493,133.61396 426.006728,133.116621 L426,133 L426,126 C426,125.447715 426.447715,125 427,125 Z" id="形状结合"></path>
        </g>
    </g>
</svg>