<?xml version="1.0" encoding="UTF-8"?>
<svg width="24px" height="24px" viewBox="0 0 24 24" version="1.1" xmlns="http://www.w3.org/2000/svg" xmlns:xlink="http://www.w3.org/1999/xlink">
    <!-- Generator: Sketch 63 (92445) - https://sketch.com -->
    <title>库存中心</title>
    <desc>Created with Sketch.</desc>
    <g id="页面1" stroke="none" stroke-width="1" fill="none" fill-rule="evenodd">
      <g xmlns="http://www.w3.org/2000/svg" id="画板" transform="translate(-422.000000, -144.000000)" fill="#FFFFFF" fill-rule="nonzero">
        <path d="M439.381966,144.25 C440.044817,144.25 440.650778,144.624504 440.947214,145.217376 L443.67082,150.66459 L443.678266,150.679501 C443.687088,150.698139 443.695165,150.717198 443.702458,150.736641 L443.67082,150.66459 C443.689813,150.702575 443.705255,150.741071 443.71733,150.77978 C443.721481,150.79385 443.7256,150.808881 443.729256,150.824091 C443.734602,150.844202 443.738578,150.863909 443.74173,150.883602 C443.7469,150.921122 443.75,150.960199 443.75,151 L443.745683,150.911775 C443.74722,150.924512 443.748417,150.937235 443.749279,150.949934 L443.75,164 C443.75,164.966498 442.966498,165.75 442,165.75 L442,165.75 L424,165.75 C423.033502,165.75 422.25,164.966498 422.25,164 L422.25,164 L422.249031,150.982588 C422.250719,150.905623 422.264548,150.827616 422.291931,150.751049 C422.308381,150.705438 422.32852,150.662222 422.352397,150.621461 L422.354783,150.617646 L425.619881,145.10784 C425.935001,144.57608 426.507271,144.25 427.125388,144.25 L439.381966,144.25 Z M442.25,151.75 L423.75,151.75 L423.75,164 C423.75,164.118347 423.832233,164.217487 423.942677,164.243397 L423.942677,164.243397 L424,164.25 L442,164.25 C442.138071,164.25 442.25,164.138071 442.25,164 L442.25,164 L442.25,151.75 Z M430.152958,159.286142 C430.567172,159.286142 430.902958,159.621928 430.902958,160.036142 C430.902958,160.415837 430.620804,160.729633 430.254729,160.779295 L430.152958,160.786142 L426,160.786142 C425.585786,160.786142 425.25,160.450355 425.25,160.036142 C425.25,159.656446 425.532154,159.342651 425.898229,159.292988 L426,159.286142 L430.152958,159.286142 Z M440.277887,154.726703 C440.55239,154.984471 440.589678,155.400168 440.381158,155.70048 L440.311219,155.786839 L435.838876,160.549544 C435.561466,160.844965 435.106184,160.862802 434.807033,160.608295 L434.729568,160.532136 L432.626942,158.147262 C432.353012,157.836561 432.382821,157.362624 432.693523,157.088694 C432.975978,156.839666 433.39334,156.841663 433.672697,157.077519 L433.752091,157.155274 L435.309,158.922 L439.217751,154.760035 C439.501295,154.458082 439.975934,154.443159 440.277887,154.726703 Z M431.177339,156.385264 C431.591553,156.385264 431.927339,156.721051 431.927339,157.135264 C431.927339,157.51496 431.645185,157.828755 431.27911,157.878418 L431.177339,157.885264 L426.222641,157.885264 C425.808428,157.885264 425.472641,157.549478 425.472641,157.135264 C425.472641,156.755569 425.754795,156.441774 426.120871,156.392111 L426.222641,156.385264 L431.177339,156.385264 Z M439.381966,145.75 L427.125388,145.75 L427.060861,145.758466 C426.998505,145.775128 426.944079,145.815574 426.910316,145.872549 L424.316,150.25 L441.786,150.25 L439.605573,145.888197 C439.563225,145.803501 439.476659,145.75 439.381966,145.75 Z" id="形状结合"/>
      </g>
    </g>
</svg>