<?xml version="1.0" encoding="UTF-8"?>
<svg width="24px" height="24px" viewBox="0 0 24 24" version="1.1" xmlns="http://www.w3.org/2000/svg" xmlns:xlink="http://www.w3.org/1999/xlink">
    <!-- Generator: Sketch 54 (76480) - https://sketchapp.com -->
    <title>大屏</title>
    <desc>Created with Sketch.</desc>
    <g id="页面1" stroke="none" stroke-width="1" fill="none" fill-rule="evenodd">
        <g id="画板" transform="translate(-342.000000, -114.000000)" fill="#FFFFFF" fill-rule="nonzero">
            <path d="M354.919598,130.5 L363,130.5 C363.276142,130.5 363.5,130.276142 363.5,130 L363.5,125.641077 L354.919598,125.641077 L354.919598,130.5 Z M353.419598,130.5 L353.419598,125.641077 L344.5,125.641077 L344.5,124.141077 L353.419598,124.141077 L353.419598,118.5 L345,118.5 C344.723858,118.5 344.5,118.723858 344.5,119 L344.5,130 C344.5,130.276142 344.723858,130.5 345,130.5 L353.419598,130.5 Z M354.919598,118.5 L354.919598,124.141077 L363.5,124.141077 L363.5,119 C363.5,118.723858 363.276142,118.5 363,118.5 L354.919598,118.5 Z M345,117 L363,117 C364.104569,117 365,117.895431 365,119 L365,130 C365,131.104569 364.104569,132 363,132 L345,132 C343.895431,132 343,131.104569 343,130 L343,119 C343,117.895431 343.895431,117 345,117 Z M349.75,135.5 C349.335786,135.5 349,135.164214 349,134.75 C349,134.335786 349.335786,134 349.75,134 L358.801536,134 C359.21575,134 359.551536,134.335786 359.551536,134.75 C359.551536,135.164214 359.21575,135.5 358.801536,135.5 L349.75,135.5 Z" id="形状结合"></path>
        </g>
    </g>
</svg>