<?xml version="1.0" encoding="UTF-8"?>
<svg width="24px" height="24px" viewBox="0 0 24 24" version="1.1" xmlns="http://www.w3.org/2000/svg" xmlns:xlink="http://www.w3.org/1999/xlink">
    <!-- Generator: Sketch 54 (76480) - https://sketchapp.com -->
    <title>订单后台管理复制</title>
    <desc>Created with Sketch.</desc>
    <g id="页面1" stroke="none" stroke-width="1" fill="none" fill-rule="evenodd">
        <g id="画板" transform="translate(-282.000000, -114.000000)">
            <g id="订单后台管理复制" transform="translate(282.000000, 114.000000)">
                <rect id="矩形" fill-opacity="0" fill="#FFFFFF" x="0" y="0" width="24" height="24"></rect>
                <g id="编组-8" transform="translate(2.000000, 2.000000)" fill="#FFFFFF" fill-rule="nonzero">
                    <path d="M2.5,0.25 L17.5,0.25 C18.7426407,0.25 19.75,1.25735931 19.75,2.5 L19.75,13.5 C19.75,14.7426407 18.7426407,15.75 17.5,15.75 L2.5,15.75 C1.25735931,15.75 0.25,14.7426407 0.25,13.5 L0.25,2.5 C0.25,1.25735931 1.25735931,0.25 2.5,0.25 Z M2.5,1.75 C2.08578644,1.75 1.75,2.08578644 1.75,2.5 L1.75,13.5 C1.75,13.9142136 2.08578644,14.25 2.5,14.25 L17.5,14.25 C17.9142136,14.25 18.25,13.9142136 18.25,13.5 L18.25,2.5 C18.25,2.08578644 17.9142136,1.75 17.5,1.75 L2.5,1.75 Z M1.3737793,19.2851562 C0.959565735,19.2851562 0.623779297,18.9493698 0.623779297,18.5351562 C0.623779297,18.1209427 0.959565735,17.7851562 1.3737793,17.7851562 L19,17.7851562 C19.4142136,17.7851562 19.75,18.1209427 19.75,18.5351562 C19.75,18.9493698 19.4142136,19.2851562 19,19.2851562 L1.3737793,19.2851562 Z M8.53137713,8.95960265 L5.46023127,11.3464059 C5.13317461,11.6005846 4.66199025,11.5415054 4.40781154,11.2144487 C4.15363282,10.8873921 4.21271207,10.4162077 4.53976873,10.162029 L8.05623495,7.42913598 C8.31998835,7.22415468 8.68751439,7.21831403 8.95764799,7.41481092 L11.363716,9.16499999 L15.1655335,4.52468276 C15.4280439,4.204275 15.9005925,4.15733997 16.2210003,4.41985043 C16.5414081,4.68236089 16.5883431,5.15490948 16.3258326,5.47531724 L12.0752792,10.6633402 C11.8233825,10.9707933 11.3753726,11.0283429 11.0539478,10.7945365 L8.53137713,8.95960265 Z" id="形状结合"></path>
                </g>
            </g>
        </g>
    </g>
</svg>