<?xml version="1.0" encoding="UTF-8"?>
<svg width="24px" height="24px" viewBox="0 0 24 24" version="1.1" xmlns="http://www.w3.org/2000/svg" xmlns:xlink="http://www.w3.org/1999/xlink">
    <!-- Generator: Sketch 54 (76480) - https://sketchapp.com -->
    <title>订单后台管理复制 2</title>
    <desc>Created with Sketch.</desc>
    <g id="页面1" stroke="none" stroke-width="1" fill="none" fill-rule="evenodd">
        <g id="画板" transform="translate(-312.000000, -114.000000)">
            <g id="订单后台管理复制-2" transform="translate(312.000000, 114.000000)">
                <rect id="矩形" fill-opacity="0" fill="#FFFFFF" x="0" y="0" width="24" height="24"></rect>
                <path d="M9.5,2.25 L14.5,2.25 C19.6086339,2.25 23.75,6.39136606 23.75,11.5 L23.75,18.5 C23.75,19.7426407 22.7426407,20.75 21.5,20.75 L9.5,20.75 C4.39136606,20.75 0.25,16.6086339 0.25,11.5 C0.25,6.39136606 4.39136606,2.25 9.5,2.25 Z M9.5,3.75 C5.21979319,3.75 1.75,7.21979319 1.75,11.5 C1.75,15.7802068 5.21979319,19.25 9.5,19.25 L21.5,19.25 C21.9142136,19.25 22.25,18.9142136 22.25,18.5 L22.25,11.5 C22.25,7.21979319 18.7802068,3.75 14.5,3.75 L9.5,3.75 Z M3.25,11.75 C3.25,11.285712 3.3092892,10.842264 3.42786937,10.4196429 C3.54644955,9.9970217 3.73039808,9.62500161 3.9797205,9.30357143 C4.22904292,8.98214125 4.54981268,8.72619143 4.94203941,8.53571429 C5.33426614,8.34523714 5.80097855,8.25 6.34219062,8.25 C6.73137684,8.25 7.08559179,8.30803513 7.40484611,8.42410714 C7.72410042,8.54017915 8.00230358,8.69196335 8.23946393,8.87946429 C8.47662428,9.06696522 8.67121447,9.27976071 8.82324033,9.51785714 C8.97526619,9.75595357 9.08472317,9.99999875 9.15161456,10.25 L8.0570338,10.25 C7.91108897,9.916665 7.68913454,9.64881054 7.39116385,9.44642857 C7.09319315,9.24404661 6.74353891,9.14285714 6.34219062,9.14285714 C5.70368199,9.14285714 5.19744346,9.3660692 4.82345983,9.8125 C4.4494762,10.2589308 4.2624872,10.9047577 4.2624872,11.75 C4.2624872,12.1547639 4.31265498,12.5193436 4.41299205,12.84375 C4.51332912,13.1681564 4.65471105,13.4434512 4.83714209,13.6696429 C5.01957313,13.8958345 5.23848709,14.0699399 5.49389054,14.1919643 C5.74929399,14.3139887 6.03205786,14.375 6.34219062,14.375 C6.76786305,14.375 7.13728036,14.2797629 7.45045364,14.0892857 C7.76362692,13.8988086 7.98406111,13.6130971 8.11176284,13.2321429 L9.17897907,13.2321429 C9.09992562,13.5119062 8.98742817,13.7738083 8.84148334,14.0178571 C8.69553851,14.261906 8.5085495,14.4747015 8.28051071,14.65625 C8.05247191,14.8377985 7.77882946,14.9821423 7.45957514,15.0892857 C7.14032083,15.1964291 6.76786305,15.25 6.34219062,15.25 C5.81314062,15.25 5.35554963,15.1562509 4.96940393,14.96875 C4.58325824,14.7812491 4.26248847,14.5282754 4.00708502,14.2098214 C3.75168157,13.8913675 3.56165209,13.5208354 3.43699088,13.0982143 C3.31232967,12.6755931 3.25,12.2261929 3.25,11.75 Z M12.3721818,8.41071429 C12.8221783,8.41071429 13.2037575,8.4627971 13.5169308,8.56696429 C13.8301041,8.67113147 14.0855037,8.81398719 14.2831373,8.99553571 C14.4807709,9.17708424 14.6251933,9.39285589 14.7164089,9.64285714 C14.8076244,9.89285839 14.8532315,10.163689 14.8532315,10.4553571 C14.8532315,10.7648825 14.8061042,11.0491058 14.7118481,11.3080357 C14.6175921,11.5669656 14.4701292,11.7886896 14.2694551,11.9732143 C14.0687809,12.157739 13.8118611,12.3005947 13.4986878,12.4017857 C13.1855145,12.5029767 12.8100162,12.5535714 12.3721818,12.5535714 L10.8306472,12.5535714 L10.8306472,15.0982143 L9.81816,15.0982143 L9.81816,8.41071429 L12.3721818,8.41071429 Z M10.8306472,11.6607143 L12.2353592,11.6607143 C12.7704902,11.6607143 13.1718325,11.5580367 13.439398,11.3526786 C13.7069635,11.1473204 13.8407443,10.8482163 13.8407443,10.4553571 C13.8407443,10.0803553 13.7069635,9.79315576 13.439398,9.59375 C13.1718325,9.39434424 12.7796116,9.29464286 12.2627237,9.29464286 L10.8306472,9.29464286 L10.8306472,11.6607143 Z M15.9902566,13.2053571 C16.1605255,13.6220259 16.3916014,13.92113 16.683491,14.1026786 C16.9753807,14.2842271 17.3128731,14.375 17.6959782,14.375 C17.9574627,14.375 18.1778969,14.3467265 18.3572874,14.2901786 C18.536678,14.2336307 18.6826206,14.1592267 18.7951198,14.0669643 C18.9076189,13.9747019 18.9881914,13.8720244 19.0368397,13.7589286 C19.0854879,13.6458328 19.1098117,13.5327387 19.1098117,13.4196429 C19.1098117,13.2172609 19.0596439,13.0476197 18.9593069,12.9107143 C18.8589698,12.7738088 18.7297497,12.6577386 18.5716428,12.5625 C18.4135359,12.4672614 18.2402291,12.3883932 18.051717,12.3258929 C17.8632049,12.2633925 17.6777361,12.2023812 17.4953051,12.1428571 C17.1000379,12.0178565 16.7625455,11.8883935 16.4828179,11.7544643 C16.2030903,11.620535 15.9720145,11.471727 15.7895834,11.3080357 C15.6071524,11.1443444 15.4733716,10.9627986 15.3882372,10.7633929 C15.3031027,10.5639871 15.2605361,10.339287 15.2605361,10.0892857 C15.2605361,9.81547482 15.3213455,9.56547732 15.4429662,9.33928571 C15.5645869,9.11309411 15.7318128,8.91964366 15.944649,8.75892857 C16.1574853,8.59821348 16.4098444,8.47321473 16.7017341,8.38392857 C16.9936237,8.29464241 17.3098328,8.25 17.6503707,8.25 C18.0213138,8.25 18.351205,8.29761857 18.6400541,8.39285714 C18.9289033,8.48809571 19.1767017,8.61607062 19.3834569,8.77678571 C19.5902121,8.9375008 19.7589583,9.12797509 19.8897005,9.34821429 C20.0204427,9.56845348 20.1162176,9.80357018 20.1770279,10.0535714 L19.0733257,10.0535714 C18.9334619,9.74999848 18.7388717,9.52083411 18.4895493,9.36607143 C18.2402269,9.21130875 17.9605035,9.13392857 17.6503707,9.13392857 C17.4740207,9.13392857 17.308315,9.15773786 17.1532486,9.20535714 C16.9981822,9.25297643 16.8644015,9.31696388 16.7519023,9.39732143 C16.6394032,9.47767897 16.5512295,9.5744042 16.4873787,9.6875 C16.4235278,9.8005958 16.3916028,9.91964223 16.3916028,10.0446429 C16.3916028,10.336311 16.5056205,10.5729158 16.7336593,10.7544643 C16.9616981,10.9360128 17.3159131,11.0952374 17.7963148,11.2321429 C18.2341493,11.3571435 18.6081273,11.4866065 18.9182601,11.6205357 C19.2283928,11.754465 19.4822722,11.903273 19.6799059,12.0669643 C19.8775395,12.2306556 20.0219619,12.4136895 20.1131774,12.6160714 C20.2043929,12.8184534 20.25,13.0505939 20.25,13.3125 C20.25,13.5982157 20.1937513,13.8601179 20.0812521,14.0982143 C19.968753,14.3363107 19.8030473,14.5401777 19.58413,14.7098214 C19.3652128,14.8794651 19.0961311,15.0119043 18.7768767,15.1071429 C18.4576224,15.2023814 18.0882051,15.25 17.6686137,15.25 C17.3402379,15.25 17.0285895,15.2113099 16.7336593,15.1339286 C16.4387292,15.0565472 16.1681272,14.9345246 15.9218453,14.7678571 C15.6755634,14.6011896 15.4612101,14.3883942 15.2787791,14.1294643 C15.096348,13.8705344 14.9564863,13.5625018 14.8591898,13.2053571 L15.9902566,13.2053571 Z" id="形状结合" fill="#000000" fill-rule="nonzero"></path>
            </g>
        </g>
    </g>
</svg>