<?xml version="1.0" encoding="UTF-8"?>
<svg width="20px" height="18px" viewBox="0 0 20 18" version="1.1" xmlns="http://www.w3.org/2000/svg" xmlns:xlink="http://www.w3.org/1999/xlink">
    <!-- Generator: Sketch 54 (76480) - https://sketchapp.com -->
    <title>商管理后台复制</title>
    <desc>Created with Sketch.</desc>
    <g id="页面1" stroke="none" stroke-width="1" fill="none" fill-rule="evenodd">
        <g id="画板" transform="translate(-21.000000, -117.000000)" fill="#FFFFFF" fill-rule="nonzero">
            <g id="商管理后台复制" transform="translate(19.000000, 114.000000)">
                <path d="M21.7581141,9.3532401 L21.7955158,9.47124029 C21.9168862,9.85415694 21.9019966,10.2595737 21.7617668,10.6254723 C21.4610733,12.4157 19.9049343,13.75 18.0638051,13.75 C16.8550944,13.75 15.7561597,13.1728812 15.0638051,12.2510759 C14.3714505,13.1728812 13.2725158,13.75 12.0638051,13.75 C10.8363581,13.75 9.72211671,13.1548506 9.03190254,12.2079614 C8.34168838,13.1548506 7.227447,13.75 6,13.75 C3.92893219,13.75 2.25,12.0710678 2.25,10 C2.25,9.32293557 2.43039383,8.67078584 2.76644505,8.09993934 L3.91660827,4.47124029 C4.14708735,3.74409201 4.82201393,3.25 5.58481484,3.25 L18.5424943,3.25 C19.3052953,3.25 19.9802218,3.74409201 20.2107009,4.47124029 L21.4556708,8.39904893 C21.598421,8.70105876 21.7003702,9.02156448 21.7581141,9.3532401 Z M20.0419118,8.90316828 L18.7808096,4.9244629 C18.747884,4.82058457 18.6514659,4.75 18.5424943,4.75 L5.58481484,4.75 C5.47584328,4.75 5.3794252,4.82058457 5.34649962,4.9244629 L4.16927566,8.63853701 L4.09028496,8.8094949 C3.86891315,9.16360309 3.75,9.57210102 3.75,10 C3.75,11.2426407 4.75735931,12.25 6,12.25 C6.96129934,12.25 7.80706728,11.6415571 8.12216438,10.7500654 C8.22809088,10.4503718 8.51143157,10.25 8.82929429,10.25 L9.23451079,10.25 C9.55237351,10.25 9.8357142,10.4503718 9.94164071,10.7500654 C10.2567378,11.6415571 11.1025057,12.25 12.0638051,12.25 C13.0251044,12.25 13.8708724,11.6415571 14.1859695,10.7500654 C14.291896,10.4503718 14.5752367,10.25 14.8930994,10.25 L15.2345108,10.25 C15.5523735,10.25 15.8357142,10.4503718 15.9416407,10.7500654 C16.2567378,11.6415571 17.1025057,12.25 18.0638051,12.25 C19.1888401,12.25 20.1371396,11.4188839 20.2918248,10.3164164 L20.3542096,10.1049729 C20.3805408,10.0482204 20.3849719,9.98550315 20.3656244,9.92446289 L20.3120937,9.75557644 L20.2861949,9.64579639 C20.2510522,9.42295106 20.1827581,9.20844212 20.0839939,9.00784915 L20.0419118,8.90316828 Z M4.75,19.25 L19.8331687,19.25 L19.8331687,15 C19.8331687,14.5857864 20.1689552,14.25 20.5831687,14.25 C20.9973823,14.25 21.3331687,14.5857864 21.3331687,15 L21.3331687,20 C21.3331687,20.4142136 20.9973823,20.75 20.5831687,20.75 L4,20.75 C3.58578644,20.75 3.25,20.4142136 3.25,20 L3.25,15 C3.25,14.5857864 3.58578644,14.25 4,14.25 C4.41421356,14.25 4.75,14.5857864 4.75,15 L4.75,19.25 Z"></path>
            </g>
        </g>
    </g>
</svg>