<?xml version="1.0" encoding="UTF-8"?>
<svg width="21px" height="16px" viewBox="0 0 21 16" version="1.1" xmlns="http://www.w3.org/2000/svg" xmlns:xlink="http://www.w3.org/1999/xlink">
    <!-- Generator: Sketch 54 (76480) - https://sketchapp.com -->
    <title>优惠券管理后台复制 2</title>
    <desc>Created with Sketch.</desc>
    <g id="页面1" stroke="none" stroke-width="1" fill="none" fill-rule="evenodd">
        <g id="画板" transform="translate(-108.000000, -118.000000)" fill="#FFFFFF" fill-rule="nonzero">
            <g id="优惠券管理后台复制-2" transform="translate(107.000000, 114.000000)">
                <path d="M7.75,5.75 L4,5.75 C3.30964406,5.75 2.75,6.30964406 2.75,7 L2.75,8.32501359 C4.46168024,8.67246634 5.75,10.1857816 5.75,12 C5.75,13.8142184 4.46168024,15.3275337 2.75,15.6749864 L2.75,17 C2.75,17.6903559 3.30964406,18.25 4,18.25 L7.75,18.25 L7.75,5.75 Z M9.25,5.75 L9.25,18.25 L19,18.25 C19.6903559,18.25 20.25,17.6903559 20.25,17 L20.25,15.6749864 C18.5383198,15.3275337 17.25,13.8142184 17.25,12 C17.25,10.1857816 18.5383198,8.67246634 20.25,8.32501359 L20.25,7 C20.25,6.30964406 19.6903559,5.75 19,5.75 L9.25,5.75 Z M2,9.75 C1.58578644,9.75 1.25,9.41421356 1.25,9 L1.25,7 C1.25,5.48121694 2.48121694,4.25 4,4.25 L19,4.25 C20.5187831,4.25 21.75,5.48121694 21.75,7 L21.75,9 C21.75,9.41421356 21.4142136,9.75 21,9.75 C19.7573593,9.75 18.75,10.7573593 18.75,12 C18.75,13.2426407 19.7573593,14.25 21,14.25 C21.4142136,14.25 21.75,14.5857864 21.75,15 L21.75,17 C21.75,18.5187831 20.5187831,19.75 19,19.75 L4,19.75 C2.48121694,19.75 1.25,18.5187831 1.25,17 L1.25,15 C1.25,14.5857864 1.58578644,14.25 2,14.25 C3.24264069,14.25 4.25,13.2426407 4.25,12 C4.25,10.7573593 3.24264069,9.75 2,9.75 Z"></path>
            </g>
        </g>
    </g>
</svg>
