<?xml version="1.0" encoding="UTF-8"?>
<svg width="18px" height="19px" viewBox="0 0 18 19" version="1.1" xmlns="http://www.w3.org/2000/svg" xmlns:xlink="http://www.w3.org/1999/xlink">
    <!-- Generator: Sketch 54 (76480) - https://sketchapp.com -->
    <title>我的收藏</title>
    <desc>Created with Sketch.</desc>
    <g id="页面1" stroke="none" stroke-width="1" fill="none" fill-rule="evenodd">
        <g id="画板" transform="translate(-218.000000, -116.000000)">
            <g id="我的收藏" transform="translate(215.000000, 114.000000)">
                <g id="编组-5">
                    <rect id="矩形复制" fill-opacity="0" fill="#F1F1F1" x="0" y="0" width="24" height="24"></rect>
                    <g id="编组-3" transform="translate(3.000000, 2.000000)" fill="#FFFFFF" fill-rule="nonzero">
                        <path d="M15,17.25 C15.4142136,17.25 15.75,17.5857864 15.75,18 C15.75,18.4142136 15.4142136,18.75 15,18.75 L3,18.75 C1.48121694,18.75 0.25,17.5187831 0.25,16 L0.25,3 C0.25,1.48121694 1.48121694,0.25 3,0.25 L15,0.25 C16.5187831,0.25 17.75,1.48121694 17.75,3 L17.75,12.3033854 C17.75,12.717599 17.4142136,13.0533854 17,13.0533854 C16.5857864,13.0533854 16.25,12.717599 16.25,12.3033854 L16.25,3 C16.25,2.30964406 15.6903559,1.75 15,1.75 L3,1.75 C2.30964406,1.75 1.75,2.30964406 1.75,3 L1.75,16 C1.75,16.6903559 2.30964406,17.25 3,17.25 L15,17.25 Z M9.18543561,5.51893406 C10.3068951,4.29192054 12.053194,3.99702669 13.2285252,5.08392536 C13.2862708,5.13732606 13.3421597,5.19277639 13.3960902,5.25017276 C14.7431501,6.68380132 14.7812925,8.93817789 13.4839952,10.4187 L9.76567756,14.6621768 C9.46792803,15.0019792 8.93954503,15.0033362 8.64005408,14.6650677 L4.88303043,10.4215908 C3.58318682,8.93817789 3.62132922,6.68380132 4.96838916,5.25017276 C5.02288032,5.19217974 5.0793718,5.1361748 5.13775846,5.08226491 C6.27092863,4.03597997 8.09526248,4.3784192 9.18543561,5.51893406 Z M9.19867854,13.0331978 L12.3558254,9.43014899 C13.1444319,8.53016308 13.1210467,7.14799795 12.3029391,6.27731474 C12.2730316,6.24548526 12.2420674,6.21476409 12.2101051,6.18520658 C11.5774978,5.60019709 10.4057321,5.99158201 9.86391711,7.18699679 C9.58922576,7.79305261 8.71998941,7.76783374 8.48089713,7.14687169 C8.08497003,6.11858379 6.74475445,5.64009968 6.15532653,6.18433352 C6.12302594,6.21415748 6.09174374,6.24517025 6.06154028,6.27731474 C5.24384086,7.14756349 5.22007095,8.52878384 6.007474,9.42880138 L9.19867854,13.0331978 Z" id="形状结合"></path>
                    </g>
                </g>
            </g>
        </g>
    </g>
</svg>