<?xml version="1.0" encoding="UTF-8"?>
<svg width="24px" height="24px" viewBox="0 0 24 24" version="1.1" xmlns="http://www.w3.org/2000/svg" xmlns:xlink="http://www.w3.org/1999/xlink">
    <!-- Generator: Sketch 63 (92445) - https://sketch.com -->
    <title>商品标签管理</title>
    <desc>Created with Sketch.</desc>
    <g id="页面1" stroke="none" stroke-width="1" fill="none" fill-rule="evenodd">
        <g id="画板" transform="translate(-379.000000, -114.000000)">
            <g id="编组-6" transform="translate(380.000000, 115.000000)">
                <path d="M11,0.75 C8.16954066,0.75 5.60704066,1.89727033 3.75215549,3.75215549 C1.89727033,5.60704066 0.75,8.16954066 0.75,11 L0.75,21.25 L11,21.25 C13.8304593,21.25 16.3929593,20.1027297 18.2478445,18.2478445 C20.1027297,16.3929593 21.25,13.8304593 21.25,11 C21.25,8.16954066 20.1027297,5.60704066 18.2478445,3.75215549 C16.3929593,1.89727033 13.8304593,0.75 11,0.75 Z" id="矩形" stroke="#FFFFFF" stroke-width="1.5"></path>
                <line x1="5" y1="15.0107422" x2="16" y2="15.0107422" id="路径-2复制" stroke="#FFFFFF" stroke-width="1.5" stroke-linecap="round" stroke-linejoin="round"></line>
                <path d="M8.6262207,17 C9.7307902,17 10.6262207,16.1045695 10.6262207,15 C10.6262207,13.8954305 9.7307902,13 8.6262207,13 C7.5216512,13 6.6262207,13.8954305 6.6262207,15 C6.6262207,16.1045695 7.5216512,17 8.6262207,17 Z" id="椭圆形复制-4" fill="#FFFFFF"></path>
                <line x1="5" y1="9.01074219" x2="16" y2="9.01074219" id="路径-2复制备份" stroke="#FFFFFF" stroke-width="1.5" stroke-linecap="round" stroke-linejoin="round"></line>
                <path d="M13,11 C14.1045695,11 15,10.1045695 15,9 C15,7.8954305 14.1045695,7 13,7 C11.8954305,7 11,7.8954305 11,9 C11,10.1045695 11.8954305,11 13,11 Z" id="椭圆形复制-4备份" fill="#FFFFFF"></path>
            </g>
        </g>
    </g>
</svg>