<?xml version="1.0" encoding="UTF-8"?>
<svg width="18px" height="20px" viewBox="0 0 18 20" version="1.1" xmlns="http://www.w3.org/2000/svg" xmlns:xlink="http://www.w3.org/1999/xlink">
    <!-- Generator: Sketch 54 (76480) - https://sketchapp.com -->
    <title>商品管理后台复制 2</title>
    <desc>Created with Sketch.</desc>
    <g id="页面1" stroke="none" stroke-width="1" fill="none" fill-rule="evenodd">
        <g id="画板" transform="translate(-68.000000, -116.000000)" fill="#ffffff" fill-rule="nonzero">
            <g id="商品管理后台复制-2" transform="translate(65.000000, 114.000000)">
                <path d="M7.25,7.25 L7.25,7 C7.25,4.37664744 9.37664744,2.25 12,2.25 C14.6233526,2.25 16.75,4.37664744 16.75,7 L16.75,7.25 L17.9299443,7.25 C18.8273221,7.25 19.5792737,7.92878598 19.6708152,8.82148248 L20.7988096,19.8214825 C20.8974021,20.7829389 20.1979127,21.6422784 19.2364563,21.7408709 C19.1771448,21.746953 19.1175612,21.75 19.0579387,21.75 L4.94192639,21.75 C3.97542808,21.75 3.19192639,20.9664983 3.19192639,20 C3.19192639,19.9403775 3.1949734,19.880794 3.20105549,19.8214825 L4.32904991,8.82148248 C4.42059143,7.92878598 5.17254302,7.25 6.06992081,7.25 L7.25,7.25 Z M8.75,7.25 L15.25,7.25 L15.25,7 C15.25,5.20507456 13.7949254,3.75 12,3.75 C10.2050746,3.75 8.75,5.20507456 8.75,7 L8.75,7.25 Z M7.25,8.75 L6.06992081,8.75 C5.94172399,8.75 5.83430233,8.84696943 5.82122497,8.9744975 L4.69323055,19.9744975 L4.69192639,20 C4.69192639,20.1380712 4.80385521,20.25 4.94192639,20.25 L19.0579387,20.25 L19.0834412,20.2486958 C19.2207922,20.2346112 19.3207192,20.1118484 19.3066346,19.9744975 L18.1786402,8.9744975 C18.1655628,8.84696943 18.0581412,8.75 17.9299443,8.75 L16.75,8.75 L16.75,10.8256836 C16.75,11.2398972 16.4142136,11.5756836 16,11.5756836 C15.5857864,11.5756836 15.25,11.2398972 15.25,10.8256836 L15.25,8.75 L8.75,8.75 L8.75,10.8256836 C8.75,11.2398972 8.41421356,11.5756836 8,11.5756836 C7.58578644,11.5756836 7.25,11.2398972 7.25,10.8256836 L7.25,8.75 Z"></path>
            </g>
        </g>
    </g>
</svg>