<?xml version="1.0" encoding="UTF-8"?>
<svg width="16px" height="16px" viewBox="0 0 16 16" version="1.1" xmlns="http://www.w3.org/2000/svg" xmlns:xlink="http://www.w3.org/1999/xlink">
    <title>提示-警告</title>
    <g id="策划评审后-new" stroke="none" stroke-width="1" fill="none" fill-rule="evenodd">
        <g id="提示-警告">
            <path d="M8,1 C11.8659932,1 15,4.13400675 15,8 C15,11.8659932 11.8659932,15 8,15 C4.13400675,15 1,11.8659932 1,8 C1,4.13400675 4.13400675,1 8,1 Z M8.21666667,11 L7.78333333,11 C7.48878147,11 7.25,11.2387815 7.25,11.5333333 L7.25,11.5333333 L7.25,11.9666667 C7.25,12.2612185 7.48878147,12.5 7.78333333,12.5 L7.78333333,12.5 L8.21666667,12.5 C8.51121853,12.5 8.75,12.2612185 8.75,11.9666667 L8.75,11.9666667 L8.75,11.5333333 C8.75,11.2387815 8.51121853,11 8.21666667,11 L8.21666667,11 Z M8.75,4 L7.25,4 L7.5,9.5 L8.5,9.5 L8.75,4 Z" id="形状结合" fill="#FA8B15"></path>
            <rect id="透明底块" x="0" y="0" width="16" height="16"></rect>
        </g>
    </g>
</svg>